<svg width="106" height="22" viewBox="0 0 106 22" fill="none" xmlns="http://www.w3.org/2000/svg">
<path d="M25.9619 5.95326C25.6293 5.82281 24.2719 5.99291 23.8398 6.04092C22.958 6.1411 20.8939 6.6201 20.1572 6.32164C19.8018 6.17763 19.4619 5.8896 19.0941 5.73619C18.0237 5.29371 16.7595 5.46277 15.8736 6.2225C14.8892 7.06675 14.7493 8.46724 13.7878 9.3261L14.4012 7.84318C14.4095 7.6929 13.7577 6.81838 13.622 6.64097C12.5972 5.30415 11.1994 3.94332 9.87718 2.91331C9.74041 2.80687 9.13734 2.31743 9.02129 2.32682C8.96534 2.33413 8.92285 2.36335 8.89799 2.41344C8.78711 2.62946 8.82131 3.64799 8.94047 3.8661C9.91759 4.84289 10.8284 5.88438 11.6594 6.99266L11.5154 6.91022C9.01404 4.38684 5.89823 2.22664 2.55342 1.03591C2.1462 0.891901 1.01364 0.47447 0.637508 0.587176C0.429235 0.649791 0.513166 1.24776 0.538034 1.42204C0.83542 3.44241 2.82801 4.06542 4.33255 4.97333L1.67266 4.20213C1.57215 6.33938 3.76368 7.23268 5.43816 7.74299C5.43402 7.79308 5.47235 7.8317 5.38531 7.81709C4.75117 7.70855 4.11702 7.6042 3.47251 7.57602C3.45594 7.99032 3.6984 8.42445 3.93051 8.75526C4.65377 9.79049 5.91791 10.0545 7.0743 10.2841L5.51691 10.4281C5.46303 10.4646 5.50137 10.4886 5.50448 10.5241C5.54074 10.8654 6.07231 11.432 6.34068 11.6335C7.48566 12.4913 8.89488 12.3107 10.2253 12.1584C10.2129 12.2387 10.1362 12.2241 10.0865 12.246C9.47825 12.5017 8.77675 12.5883 8.13846 12.7428C8.02137 12.9077 8.90109 13.3877 9.0244 13.4441C9.52384 13.6736 9.96111 13.7613 10.4916 13.8678C10.5424 13.8782 10.5642 13.8375 10.5538 13.9293C9.60881 15.3987 8.63479 16.8493 7.82968 18.4063C7.52193 19.0022 7.10642 19.7671 6.9313 20.4058C6.86395 20.65 6.71267 21.1645 6.86706 21.3773C7.15823 21.5955 7.51157 21.1968 7.70948 20.9891C8.48558 20.1762 9.10937 19.1055 9.83781 18.2403L8.46693 20.6364C8.42859 20.7668 8.79644 20.675 8.85758 20.6573C9.92485 20.3505 10.8087 18.4428 11.4543 17.5933C13.938 17.4879 16.2746 16.723 17.7491 14.5868C19.1987 12.4871 19.006 9.41585 21.0525 7.74404C21.7653 7.16068 23.8978 6.60862 24.8366 6.38843C25.0666 6.33521 25.8718 6.24128 25.9961 6.16301C26.0334 6.14006 26.0427 6.08683 26.0593 6.04822C26.0728 5.97308 26.0116 5.96995 25.9619 5.95117V5.95326ZM18.5438 7.90057C17.8423 8.02476 17.6838 7.00101 18.319 6.87787C18.9967 6.74533 19.1915 7.78682 18.5438 7.90057Z" fill="black"/>
<path d="M33.2018 19.2015C32.9386 19.2015 32.806 19.0303 32.7874 18.8216C32.7874 18.5743 32.8816 18.4804 33.0702 18.4042C33.2215 18.3478 34.0505 18.3656 34.0505 17.5871V7.50715C34.0505 6.72864 33.2215 6.74742 33.0702 6.69107C32.8816 6.61489 32.7874 6.51992 32.7874 6.27259C32.806 6.06388 32.9386 5.89273 33.2018 5.89273H37.0844C37.4233 5.89273 37.5932 6.06388 37.6129 6.27259C37.6129 6.51992 37.4999 6.61384 37.2544 6.69002C37.0471 6.74638 35.9726 6.72759 35.9726 7.5061V17.4733C35.9726 17.872 36.2741 18.0055 36.557 18.0055H39.7992C40.5536 18.0055 41.3266 17.4357 41.8726 16.867C42.0426 16.6959 42.1742 16.4684 42.3628 16.4684C42.5513 16.4684 42.5513 16.5059 42.5513 16.6583C42.5513 16.9995 42.2125 17.873 42.1182 18.1579C41.8726 18.8988 41.7597 19.2025 40.5722 19.2025H33.2018V19.2015Z" fill="black"/>
<path d="M42.9618 18.8039C42.9618 18.614 43.0934 18.4626 43.282 18.4052C43.4705 18.3489 43.942 18.2341 43.942 17.6455V12.1208C43.942 11.5708 43.7534 11.4373 43.3762 11.4373C42.9991 11.4373 42.9048 11.2473 42.9048 11.001C42.9048 10.7548 43.0177 10.7162 43.1877 10.64L44.9409 9.88024C45.0165 9.84268 45.1481 9.78528 45.2238 9.78528C45.487 9.78528 45.6952 9.93764 45.6952 10.1651V17.6455C45.6952 18.2341 46.1667 18.3478 46.3553 18.4042C46.5439 18.4605 46.6755 18.6129 46.6755 18.8028C46.6755 18.9928 46.4682 19.2015 46.1667 19.2015H43.4705C43.169 19.2015 42.9618 19.0116 42.9618 18.8028V18.8039ZM43.4332 7.60211C43.4332 6.93735 44.0736 6.46357 44.7337 6.46357C45.3937 6.46357 46.0538 6.9384 46.0538 7.60211C46.0538 8.26583 45.4693 8.74066 44.7337 8.74066C43.998 8.74066 43.4332 8.26583 43.4332 7.60211Z" fill="black"/>
<path d="M48.0836 17.3606V11.5322C48.0836 10.5074 47.1221 10.9249 47.1221 10.2987C47.1221 9.67257 47.1594 10.1088 47.292 9.99504C47.4433 9.8625 47.8205 9.72997 48.1779 9.21653C48.5365 8.70413 48.6494 7.86823 48.7064 7.71691C48.7624 7.58437 48.895 7.33704 49.2722 7.33704C49.6493 7.33704 49.8379 7.69812 49.8379 7.92562V9.54004C49.8379 9.88129 49.9136 10.0149 50.2524 10.0149H51.7227C52.0429 10.0149 52.2315 10.2236 52.2315 10.4511C52.2315 10.6786 52.0802 10.9071 51.6284 10.9071H50.2337C49.9509 10.9071 49.8379 11.0021 49.8379 11.287V17.4191C49.8379 17.5902 49.8379 18.1777 50.6109 18.1777C51.3839 18.1777 51.5911 17.513 51.931 17.513C52.2709 17.513 52.2512 17.6267 52.2512 17.8741C52.2512 18.3489 51.5725 19.4311 50.1394 19.4311C48.7064 19.4311 48.0847 18.6901 48.0847 17.3617L48.0836 17.3606Z" fill="black"/>
<path d="M53.9369 17.3606V11.5322C53.9369 10.5074 52.9753 10.9249 52.9753 10.2987C52.9753 9.67257 53.0126 10.1088 53.1453 9.99504C53.2966 9.8625 53.6737 9.72997 54.0312 9.21653C54.3897 8.70413 54.5027 7.86823 54.5597 7.71691C54.6156 7.58437 54.7483 7.33704 55.1254 7.33704C55.5026 7.33704 55.6912 7.69812 55.6912 7.92562V9.54004C55.6912 9.88129 55.7668 10.0149 56.1057 10.0149H57.576C57.8962 10.0149 58.0848 10.2236 58.0848 10.4511C58.0848 10.6786 57.9335 10.9071 57.4817 10.9071H56.087C55.8041 10.9071 55.6912 11.0021 55.6912 11.287V17.4191C55.6912 17.5902 55.6912 18.1777 56.4642 18.1777C57.2372 18.1777 57.4444 17.513 57.7843 17.513C58.1242 17.513 58.1045 17.6267 58.1045 17.8741C58.1045 18.3489 57.4258 19.4311 55.9927 19.4311C54.5597 19.4311 53.938 18.6901 53.938 17.3617L53.9369 17.3606Z" fill="black"/>
<path d="M58.7801 18.8039C58.7801 18.6139 58.9117 18.4626 59.1003 18.4052C59.2889 18.3489 59.7604 18.2341 59.7604 17.6455V7.96319C59.7604 7.41322 59.5718 7.27964 59.1946 7.27964C58.8174 7.27964 58.7231 7.08971 58.7231 6.84343C58.7231 6.59714 58.8361 6.55853 59.006 6.48235L60.7593 5.72262C60.8349 5.68506 60.9665 5.62766 61.0421 5.62766C61.3053 5.62766 61.5136 5.78002 61.5136 6.00752V17.6455C61.5136 18.2341 61.9851 18.3478 62.1736 18.4052C62.3622 18.4616 62.4938 18.6139 62.4938 18.8039C62.4938 18.9938 62.2866 19.2025 61.9851 19.2025H59.2889C58.9874 19.2025 58.7801 19.0126 58.7801 18.8039Z" fill="black"/>
<path d="M63.1218 14.5503C63.1218 11.55 65.4211 9.78527 67.6842 9.78527C69.9472 9.78527 71.774 11.7211 71.774 13.9805C71.774 16.2398 71.6227 14.7402 71.3212 14.7402H65.2895C65.1766 14.7402 64.988 14.7778 64.988 15.0053C64.988 16.7522 66.0066 18.1944 68.0043 18.1944C70.0021 18.1944 70.7564 16.5998 71.1709 16.5998C71.5854 16.5998 71.5294 16.7324 71.5294 16.9797C71.5294 17.8146 70.1907 19.429 67.7411 19.429C65.2916 19.429 63.1229 17.3596 63.1229 14.5492L63.1218 14.5503ZM70.1524 13.298C70.1524 12.2346 69.341 10.7735 67.6261 10.7735C65.9112 10.7735 64.987 12.3493 64.987 13.394C64.987 14.4386 65.1569 13.7738 65.3641 13.7738H69.5493C69.9638 13.7738 70.1534 13.6976 70.1534 13.299L70.1524 13.298Z" fill="black"/>
<path d="M75.7312 18.6327C75.4856 18.4428 75.298 18.3864 75.1468 18.3864C74.8639 18.3864 74.6753 18.6515 74.4867 18.8988C74.3168 19.1076 74.0536 19.4311 73.6951 19.4311C73.3365 19.4311 73.2049 19.2787 73.2049 18.8801V7.96423C73.2049 7.41427 73.0164 7.28069 72.6392 7.28069C72.262 7.28069 72.1677 7.09076 72.1677 6.84447C72.1677 6.59819 72.2807 6.55958 72.4506 6.48339L74.2038 5.72367C74.2795 5.6861 74.4111 5.6287 74.4867 5.6287C74.7499 5.6287 74.9582 5.78107 74.9582 6.00857V10.8497C74.9582 10.8873 74.9955 10.9061 75.0338 10.9061C75.0722 10.9061 75.0898 10.8873 75.1095 10.8685C75.7498 10.2236 76.6171 9.78632 77.7486 9.78632C80.1992 9.78632 82.4042 11.8933 82.4042 14.9875C82.4042 18.0817 80.4064 19.43 78.276 19.43C76.1456 19.43 76.3715 19.1263 75.7312 18.6327ZM80.5194 14.9499C80.5194 12.9191 79.5391 10.8497 77.56 10.8497C75.5809 10.8497 74.9022 12.8054 74.9022 14.305C74.9022 15.8046 75.8255 18.1965 77.9745 18.1965C80.1236 18.1965 80.5194 16.7543 80.5194 14.9499Z" fill="black"/>
<path d="M83.1522 18.8039C83.1522 18.614 83.2838 18.4626 83.4724 18.4052C83.661 18.3489 84.1324 18.2341 84.1324 17.6455V12.1208C84.1324 11.5708 83.9439 11.4373 83.5667 11.4373C83.1895 11.4373 83.0952 11.2473 83.0952 11.001C83.0952 10.7548 83.2082 10.7162 83.3781 10.64L85.1313 9.88024C85.207 9.84268 85.3386 9.78528 85.4142 9.78528C85.6774 9.78528 85.8857 9.93764 85.8857 10.1651V17.6455C85.8857 18.2341 86.3571 18.3478 86.5457 18.4042C86.7343 18.4605 86.8659 18.6129 86.8659 18.8028C86.8659 18.9928 86.6587 19.2015 86.3571 19.2015H83.661C83.3594 19.2015 83.1522 19.0116 83.1522 18.8028V18.8039ZM83.6237 7.60211C83.6237 6.93735 84.264 6.46357 84.9241 6.46357C85.5841 6.46357 86.2442 6.9384 86.2442 7.60211C86.2442 8.26583 85.6598 8.74066 84.9241 8.74066C84.1884 8.74066 83.6237 8.26583 83.6237 7.60211Z" fill="black"/>
<path d="M87.7269 18.8039C87.7269 18.6139 87.8585 18.4626 88.0471 18.4052C88.2357 18.3489 88.7072 18.2341 88.7072 17.6455V12.1208C88.7072 11.5708 88.5186 11.4373 88.1414 11.4373C87.7642 11.4373 87.6699 11.2473 87.6699 11.001C87.6699 10.7548 87.7829 10.7161 87.9528 10.64L89.706 9.88024C89.7817 9.84267 89.9133 9.78527 89.9889 9.78527C90.2521 9.78527 90.4604 9.93764 90.4604 10.1651V10.5262C90.4604 10.6024 90.4977 10.6587 90.5733 10.6587C90.649 10.6587 90.7049 10.6024 90.7433 10.5638C91.4593 9.89902 92.4208 9.78527 92.741 9.78527C93.5513 9.78527 94.5699 10.2601 94.5699 10.905C94.5699 11.55 94.1368 11.8547 93.7223 11.8547C93.3078 11.8547 92.7234 10.9436 91.8561 10.9436C90.9888 10.9436 90.4614 11.4936 90.4614 12.7094V17.6455C90.4801 18.1955 90.9329 18.2904 91.1588 18.3666C91.3847 18.4428 91.6302 18.5565 91.6302 18.784C91.6302 19.0115 91.4603 19.2015 91.0272 19.2015H88.2377C87.9362 19.2015 87.729 19.0115 87.729 18.8028L87.7269 18.8039Z" fill="black"/>
<path d="M94.8032 14.5315C94.8032 11.6648 96.8766 9.78528 99.0257 9.78528C101.175 9.78528 101.665 10.6201 102.079 11.3037C102.098 11.3413 102.118 11.36 102.155 11.36C102.192 11.36 102.231 11.3037 102.231 11.2463V7.96214C102.231 7.41218 102.042 7.2786 101.665 7.2786C101.288 7.2786 101.193 7.08867 101.193 6.84239C101.193 6.5961 101.306 6.55749 101.476 6.48131L103.229 5.72158C103.305 5.68401 103.437 5.62662 103.512 5.62662C103.776 5.62662 103.984 5.77898 103.984 6.00648V17.7384C103.984 18.1558 104.285 18.327 104.474 18.3833C104.757 18.4595 104.87 18.5732 104.87 18.782C104.87 18.9907 104.663 19.1994 104.417 19.1994H103.38C102.72 19.1994 102.249 18.7434 102.249 18.2122C102.249 17.681 102.212 18.0035 102.155 18.0035C102.098 18.0035 101.985 18.1172 101.948 18.1558C101.062 19.0856 100.289 19.4279 99.3086 19.4279C96.9139 19.4279 94.8032 17.4159 94.8032 14.5294V14.5315ZM102.248 14.7026C102.248 12.5382 101.004 10.8111 99.1759 10.8111C97.3481 10.8111 96.688 13.1842 96.688 14.2476C96.688 15.8986 97.631 18.1965 99.7417 18.1965C101.852 18.1965 102.248 16.1459 102.248 14.7037V14.7026Z" fill="black"/>
</svg>
